<?xml version="1.0" encoding="UTF-8"?>
<svg id="Layer_1" data-name="Layer 1" xmlns="http://www.w3.org/2000/svg" viewBox="0 0 24 24">
  <path d="M8.62,12.38c-.21,0-.38-.17-.38-.38s.17-.38.38-.38" style="fill: none; stroke: #051122; stroke-width: 1.5px;"/>
  <path d="M8.62,12.38c.21,0,.38-.17.38-.38s-.17-.38-.38-.38" style="fill: none; stroke: #051122; stroke-width: 1.5px;"/>
  <path d="M15.75,3h4.5c.4,0,.78.16,1.06.44.28.28.44.66.44,1.06v15c0,.4-.16.78-.44,1.06s-.66.44-1.06.44h-4.5" style="fill: none; stroke: #051122; stroke-linecap: round; stroke-linejoin: round; stroke-width: 1.5px;"/>
  <path d="M11.89,23.24l-9-1.24c-.18-.03-.34-.12-.46-.26-.12-.14-.18-.31-.18-.49V3.72c0-.17.06-.33.17-.46.11-.13.26-.22.42-.26L11.84.78c.11-.02.22-.02.33,0,.11.03.21.08.3.15.09.07.16.16.21.26.05.1.07.21.07.32v21c0,.11-.02.21-.07.31-.05.1-.11.18-.19.25-.08.07-.18.12-.28.15-.1.03-.21.03-.32.02Z" style="fill: none; stroke: #051122; stroke-linecap: round; stroke-linejoin: round; stroke-width: 1.5px;"/>
</svg>