<?xml version="1.0" encoding="UTF-8"?>
<svg id="Layer_1" data-name="Layer 1" xmlns="http://www.w3.org/2000/svg" viewBox="0 0 26 24">
  <path d="M1.74,23h22.03c.18,0,.36-.06.51-.17.15-.11.28-.28.36-.47.08-.19.12-.41.11-.63-.01-.22-.07-.43-.17-.61L13.56,1.52c-.09-.16-.21-.29-.35-.39-.14-.09-.3-.14-.46-.14s-.32.05-.46.14c-.14.09-.26.22-.35.39L.92,21.11c-.1.18-.16.39-.17.61-.01.22.03.44.11.63.08.19.21.36.36.47.15.11.33.17.51.17Z" style="fill: none; stroke: #051122; stroke-linecap: round; stroke-linejoin: round; stroke-width: 1.5px;"/>
  <path d="M12.75,7.5c0,.5,0,7.43,0,7.74v.26" style="fill: none; stroke: #051122; stroke-linecap: round; stroke-linejoin: round; stroke-width: 1.5px;"/>
  <path d="M12.75,19.25c-.21,0-.38-.17-.38-.38s.17-.38.38-.38" style="fill: none; stroke: #051122; stroke-width: 1.5px;"/>
  <path d="M12.75,19.25c.21,0,.38-.17.38-.38s-.17-.38-.38-.38" style="fill: none; stroke: #051122; stroke-width: 1.5px;"/>
</svg>