<?xml version="1.0" encoding="UTF-8"?>
<svg id="Layer_1" data-name="Layer 1" xmlns="http://www.w3.org/2000/svg" viewBox="0 0 153 153">
  <path d="M110.19,152.88l-65.44.12c-4.87-.51-9.12-3.21-11.58-7.47-4.11-7.1-.23-14.57-8.63-20.2-4.68-3.15-8.28-2.07-13.17-3.44-6.79-1.93-10.45-8.26-10.94-15.03-.49-6.76-.88-28.85.61-34.38,1-3.72,3.91-7.51,7.24-9.4,6.28-3.58,12.76-.75,18.49-6.63,5.11-5.25,2.99-9.83,5.05-15.65,2.41-6.86,8.47-10.07,15.38-10.56,10.15-.75,21.56.94,31.58,0,6.26-.57,11.62-5.98,12.62-12.11.37-2.26.1-4.56.78-6.94,3.85-13.26,22.36-15.3,28.78-3.05,2.88,5.49.65,11.05,4.93,16.58,5.99,7.71,13.32,3.85,20.19,8.18,3.87,2.44,6.57,7.16,6.93,11.74v63.84c-.53,5.19-3.6,10.07-8.24,12.45-5.57,2.85-10.96.51-16.45,5.01-7.75,6.33-3.64,13.43-8.33,20.49-2.23,3.36-5.83,5.57-9.78,6.43v.02ZM110.21,121.59c6.2-1.5,11.88-5.44,12.7-11.87,0-16.02,7.61-46.54-16.63-48.2-20.27-1.4-42.65.67-63.03.51-6.91,1.79-11.05,7.26-11.62,14.34-.57,6.9-.88,28.3.59,34.36,1.43,5.84,6.57,10.36,12.54,10.97l65.46-.12Z" style="fill: #3436de;"/>
</svg>