<svg width="256" height="254" viewBox="0 0 256 254" fill="none" xmlns="http://www.w3.org/2000/svg">
<path d="M59.5306 58.3439C43.0752 74.2777 55.7568 101.895 78.3581 101.168L232.644 101.151C246.147 103.483 254.325 113.058 255.254 126.66C256.241 141.006 256.257 163.431 255.254 177.769C254.615 186.864 250.028 195.356 241.867 199.83C231.541 205.485 221.621 200.491 211.768 210.033C202.255 219.245 206.543 228.795 201.873 238.858C197.203 248.921 187.881 253.551 177.356 253.866C144.5 253.866 112 253.866 77.877 253.841C44.029 251.658 41.7896 208.28 73.7964 202.252C107.661 200.814 143.193 204.229 176.858 202.294C209.304 200.433 212.929 160.644 182.788 152.847C148.468 151.094 112.488 154.724 78.3581 152.739C67.4514 152.103 57.54 147.398 53.1691 136.88C49.1879 127.305 52.97 119.607 44.8916 110.238C34.7812 98.505 21.66 105.095 10.6787 96.8017C5.14655 92.626 1.01612 85.6141 0.468708 78.6601C-0.98275 60.3863 1.48058 40.1115 0.618001 21.6309C2.23534 10.7824 11.9145 0.967438 23.0451 0C42 0.0248106 61 0.0248168 80.3984 0.024806C99.6406 2.91885 109.311 24.1942 98.1145 40.4091C86.9176 56.6241 71.557 46.6934 59.5306 58.3439Z" fill="#A8C3DC"/>
</svg>
