<?xml version="1.0" encoding="UTF-8"?>
<svg id="Layer_1" data-name="Layer 1" xmlns="http://www.w3.org/2000/svg" viewBox="0 0 354 354.07">
  <path d="M222.86,61.04c5.15,5.14,13.94,9.42,21.24,10.09,24.57,2.26,52.86-2.36,77.37.1,16.24,1.63,28.8,14.11,31.8,29.92,1.43,7.54,1.69,15.29,1.72,22.97.04,12.61-.38,25.26-.21,38.05.13,9.56,1.02,18.65-2.14,27.38-2.9,8.02-9.56,14.82-16.89,18.98-14.71,8.34-28.73,1.16-42.48,14.91-12.66,12.66-7.03,24.92-13.02,38.72-4.99,11.49-16.52,20.4-29.14,21.56-24.2,2.22-51.7-1.92-76.07-.01-15.58,1.22-28.58,12.03-31.7,27.44-1.44,7.1-.57,12.79-3.3,19.93-10.02,26.19-44.24,31.09-61.79,9.3-12.82-15.92-1.85-35.93-21.33-49.77-16.72-11.87-33.2-1.36-48.76-20.24-16.62-20.17-5.45-52.11,19.92-57.53,4.14-.88,7.86-.46,11.69-.98,41.04-5.63,41.16-63.4-.63-68.88-2.39-.31-4.94.13-7.54-.21C.26,138.71-10.85,98.76,13.83,78.9c15.97-12.85,34.63-2.12,49.22-20.49,9.29-11.69,5.66-19.92,9.21-32.32,3.29-11.47,14.08-21.68,25.68-24.31,25.92-.33,55.61-3.07,81.39-1.06,11.98.93,23.06,7.8,28.86,18.31,8.05,14.61,1.12,28.46,14.67,42ZM152.44,201.81c5.15,5.14,13.94,9.42,21.24,10.09,24.71-1.43,51.62,1.94,76.07.04,39.49-3.08,43.65-58.9,5.4-68.09-25.46-.29-54.02-2.72-79.4-.95-30.03,2.1-44.6,37.63-23.31,58.91ZM82.02,272.19c30.97,30.95,79.28-13.19,50.82-46.92-30.18-35.76-84.18,13.58-50.82,46.92Z"/>
</svg>