<?xml version="1.0" encoding="UTF-8"?>
<svg id="Layer_1" data-name="Layer 1" xmlns="http://www.w3.org/2000/svg" viewBox="0 0 424.14 304">
  <path d="M173.31,250.8c-3.93-3.82-11.53-7.56-17.02-8.05-22.02-1.97-47,1.32-69.33.15-6.97,1.46-14.22,5.31-18.48,11.12-10.78,14.68-.67,32.48-20.85,44.39-30.71,18.13-62.13-21.13-39.06-46.89,10.19-11.38,18.18-8.29,30.92-11.37,11.21-2.71,20.74-13.96,21.65-25.47,1.7-21.54-1.31-45.28-.03-67.05-.56-5.65-4.6-13.66-8.67-17.61-14.94-14.51-37.31-1.37-48.65-25.97-2.61-5.66-3.69-13.31-3.81-21.97-.26-18.79.33-39.75,0-53.36,3.61-39.32,59.55-36.81,62.36-1.31,1.61,20.4-1.45,42.94-.05,63.46,2.67,38.95,54.58,38,59.17,4.13,1.88-13.91,2.44-24.23,16.77-31.56,29.12-14.9,58.93,20.48,38.55,46.38-9.34,11.88-16.96,9.97-29.89,12.4-33.06,6.21-32.84,56.42,6.96,58.94,38.36,2.43,79.25-1.89,117.88,0,14.63.28,29.47-10.87,31.02-25.77,2.14-20.52-1.49-44.33.05-65.17,2.88-39.1,56.28-39.48,61.59-3.53,1.38,9.36.15,14.74,6.73,22.86,12.72,15.72,28.89,6.47,42.9,18.12,20.26,16.86,10.97,49.62-14.88,54-3.28.56-7.27.32-10.54.94-15.01,2.82-23.23,15-24.16,29.6-1.3,20.36,1.65,42.66.05,62.86-1.07,13.45-11.98,26.57-25.12,28.93-40.78.1-84.01,0-125.07.69-11.87.2-21.87-6.49-27.97-17.08-7.13-12.38-1.16-25.28-13.02-36.81Z"/>
</svg>