<?xml version="1.0" encoding="UTF-8"?>
<svg id="Layer_1" data-name="Layer 1" xmlns="http://www.w3.org/2000/svg" viewBox="0 0 354 304">
  <path d="M353.7,72.34c.07,17.83.51,37.2.17,56.15-1.49,11.2-8.79,20.46-19.99,22.96-3.56.8-7.07.47-10.38,1.03-10.31,1.72-18.95,11.29-19.98,21.62-1.74,17.4,4.07,52.02-3.68,66.07-7.33,13.3-17.71,10.45-29.38,13.59-26.7,7.18-8.57,44.26-37.09,50.23H19.7c-20.53-5.12-26.89-33.8-10.03-47.06,10.73-8.43,22.95-2.52,33.25-12.41,10.3-9.89,4.85-20.84,11.13-31.14,10.86-17.84,38.05-15.67,45.98,3.62,2.44,5.93,1.38,10.82,2.87,16.59,2.67,10.41,12.48,17.17,22.95,17.99,13.72,1.09,38.05,1.1,51.74-.04,12.85-1.07,22.1-9.71,23.85-22.46,1.79-33.95-2.36-70.29-.03-103.96.55-7.91,4.12-14.93,10.56-19.64,12.35-9.04,28.96-.41,37.43-18.97,6.05-13.26.73-47.42,2.51-63.88,2.37-22.17,31.28-30.69,45.53-13.48,9.8,11.82,2,25.49,15.25,35.75,8.22,6.37,13.79,4.11,22.53,6.34,9.35,2.39,18.46,11.55,18.5,21.1Z" style="fill: #393bf4;"/>
</svg>