<?xml version="1.0" encoding="UTF-8"?>
<svg id="Layer_1" data-name="Layer 1" xmlns="http://www.w3.org/2000/svg" viewBox="0 0 241 234">
  <path d="M110.86,124.74c-11.39-10.66-23.59-5.32-35.52-11.64-19.55-10.34-20.96-37.79-2.54-49.91,14.49-9.53,30.71-.28,42.36-18.61,5.02-7.91,3.43-12.19,5.08-20.46,2.5-12.49,12.8-21.87,25.88-23.52,21.86,1.35,46.11-1.83,67.7-.04,13.45,1.13,25.17,12.94,26.61,25.69-1.27,20.78,1.73,43.46.04,63.99-.98,11.84-10.72,22.68-22.65,25.46-6.81,1.59-13.01.74-19.71,3.52-11.14,4.65-16.72,14.36-17.55,25.76-1.44,19.74,2.02,42.24-.08,61.6-1.33,12.29-12.49,22.89-24.94,25-40.36-.48-83.69,3.11-123.86.74-43.36-2.54-39.55-56.21-4.79-58.84,21.23-1.61,47.82,2.72,68.24-.61,23.25-3.8,32.85-32.15,15.72-48.17v.02ZM170.77,67.1c-26.13-24.45-66.47,10.79-43.49,38.12,25.71,30.58,72.74-10.77,43.49-38.12Z" style="fill: #dfecf9;"/>
</svg>