<?xml version="1.0" encoding="UTF-8"?>
<svg id="Layer_1" data-name="Layer 1" xmlns="http://www.w3.org/2000/svg" viewBox="0 0 473 471">
  <path d="M132.34,470.64l202.31.36c15.06-1.57,28.18-9.87,35.8-23.01,12.7-21.86.73-44.86,26.67-62.18,14.45-9.69,25.58-6.36,40.7-10.6,20.99-5.93,32.3-25.43,33.81-46.25,1.51-20.83,2.72-88.81-1.88-105.83-3.09-11.44-12.1-23.13-22.38-28.94-19.41-11.02-39.43-2.3-57.15-20.4-15.79-16.16-9.25-30.27-15.6-48.19-7.44-21.13-26.19-31-47.54-32.51-31.39-2.3-66.65,2.91-97.62,0-19.35-1.76-35.93-18.4-39.01-37.29-1.15-6.96-.3-14.05-2.42-21.37-11.92-40.81-69.13-47.1-88.97-9.38-8.89,16.89-2,34.02-15.24,51.04-18.51,23.73-41.19,11.87-62.42,25.19C9.44,108.78,1.09,123.31,0,137.41,0,203.8,0,267.31,0,333.93c1.63,15.98,11.13,31,25.46,38.32,17.24,8.78,33.87,1.57,50.87,15.44,23.95,19.49,11.25,41.35,25.77,63.08,6.89,10.35,18.02,17.13,30.24,19.8v.06ZM132.27,374.31c-19.17-4.6-36.72-16.73-39.26-36.53,0-49.31-23.52-143.28,51.42-148.37,62.66-4.3,131.85,2.06,194.87,1.57,21.35,5.51,34.17,22.34,35.93,44.14,1.75,21.25,2.72,87.12-1.81,105.77-4.41,17.98-20.32,31.91-38.77,33.78l-202.37-.36Z" style="fill: #ebebfe;"/>
</svg>