<?xml version="1.0" encoding="UTF-8"?>
<svg id="Layer_1" data-name="Layer 1" xmlns="http://www.w3.org/2000/svg" viewBox="0 0 414 168">
  <path d="M235.52,95.69c-5.38-5.21-15.73-10.31-23.22-10.97-29.81,1.9-62.88-2.59-92.3-.05-9.43.82-20.92,7.06-26.74,14.43-15.59,19.8-1.35,44.35-28.62,61.08-41.91,25.69-85.83-28.78-53.4-63.96,17.69-19.19,36.99-8.09,55.07-21.52,22.74-16.86,10.83-36.11,23.43-55.53,6.38-9.81,17.13-16.52,28.73-18.21,30.29,1.77,63.97-2.72,93.86-.13,15.96,1.37,31.45,15.09,35.43,30.42,1.61,6.29,1.06,12.77,2.28,19.11,3.87,20.46,20.68,31.32,40.56,32.7,27.96,1.9,60.95-3.07,88.09.11,17.39,2.04,33.52,19.27,35.11,36.5,2.54,27.94-17.34,45.67-44.03,47.29-22.82,1.4-55.52,1.4-78.34,0-16.76-1.03-30.95-7.43-39-22.76-8.68-16.55-.95-33.07-16.89-48.5Z" style="fill: #dfecf9;"/>
</svg>