<?xml version="1.0" encoding="UTF-8"?>
<svg id="Layer_1" data-name="Layer 1" xmlns="http://www.w3.org/2000/svg" viewBox="0 0 660 532">
  <path d="M.9,83.14C-5.57,38.25,23.54,4.8,67.84,1.96c85.54,4.97,178.13-6.41,262.86.12,19.58,1.5,39.22,9.82,51.64,25.42,26.28,32.99,2.48,79.67,53.2,101.11,30.44,12.88,119.1,1.96,157.97,4.97,88.49,6.82,85.37,127.57,6.99,134.96-43.95,4.16-94.03-3.35-138.45,0-86.75,6.53-81.9,121.68-6.99,128.15,44.24,3.81,93.92-3.47,138.45,0,78.15,6.01,91.26,107.58,18.77,132.71-139.54,5.26-280.18.64-420.08,2.31-51.87-4.51-78.38-64.25-48.52-106.54,28.42-40.27,70.18-16.47,100.33-46.86,30.15-30.39,7.22-69.97,43.9-98.1,32.63-25.02,72.89-2.89,97.09-46.57,23.68-42.81-3.64-91.11-51.06-96.25l-279.32-.98c-25.53-3.93-50.02-27.27-53.77-53.15l.06-.12Z" style="fill: #ebebfe;"/>
</svg>