<?xml version="1.0" encoding="UTF-8"?>
<svg xmlns="http://www.w3.org/2000/svg" viewBox="0 0 245 245">
  <g style="isolation: isolate;">
    <g id="Layer_1" data-name="Layer 1">
      <path d="M210.1,75.56c8.02,8.01,16.25,3.85,24.82,8.77,5.76,3.3,9.61,9.77,10.08,16.38l-.02,85.47c-1.24,7.35-5.77,13.7-12.75,16.56-8.07,3.3-14.61-.12-22.12,7.39-7.63,7.63-3.88,15.91-8.48,24.28-3.32,6.04-9.45,9.83-16.28,10.59H60.3c-6.91-.31-13.98-4.81-17.21-10.88-4.59-8.62-.06-17.21-9.23-24.96-7.75-6.55-14.91-3.2-22.63-7.09-13.43-6.77-15.11-25.41-3.43-34.8,7.63-6.14,15.05-2.82,22.72-7,5.78-3.15,9.61-9.42,10.07-15.98,1.88-26.76-1.75-55.79-.03-82.64.49-7.63,4.13-14.97,11.14-18.57,7.65-3.93,14.94-.7,22.46-6.85,9.81-8.02,4.89-17.02,10.18-26.04C87.84,4.21,94.1.52,101.02,0c28.2,0,55.73,0,83.51,0,10.27.71,18.92,8.51,19.75,18.92,1.1,13.86-1.06,29.23,0,43.14.38,5,2.27,9.93,5.84,13.49ZM47.22,197.64c3.12,3.12,8.23,5.5,12.67,5.85h125.04c9.82-.77,17.57-8.31,18.53-18.11v-85.07c-.91-9.93-8.77-17.11-18.53-18.11h-83.91c-11.28,1.17-18.17,8.97-18.94,20.14-.94,13.78,1.21,29.12.03,42.76-.72,8.32-7.7,16.12-15.81,17.97-4.24.97-7.9.3-12.29,1.96-13.11,4.95-16.71,22.7-6.79,32.61h0Z" style="fill: #d0e4f6;"/>
      <g style="mix-blend-mode: multiply;">
        <path d="M224.12,200.67H54.98v8.77h169.14v-8.77Z" style="fill: #585349;"/>
      </g>
      <path d="M189.95,98.13H62.11v104.57h127.84v-104.57Z" style="fill: #d1c6ad;"/>
      <path d="M216.63,98.13h-31.16v104.57h31.16v-104.57Z" style="fill: #beb49d;"/>
      <path d="M93.23,98.13h-31.12l-17.42-19.48h31.12l17.42,19.48Z" style="fill: #dad1bd;"/>
      <path d="M185.47,98.13h31.12l17.42-19.48h-31.12l-17.42,19.48Z" style="fill: #948d7b;"/>
      <path d="M148.41,132.21H62.11v45.05h86.3v-45.05Z" style="fill: #f5f7fa;"/>
      <path d="M129.79,140.79h-60.84v3.54h60.84v-3.54Z" style="fill: #37414e;"/>
      <path d="M129.79,148.64h-60.84v3.54h60.84v-3.54Z" style="fill: #37414e;"/>
      <path d="M98.4,156.47h-29.45v3.54h29.45v-3.54Z" style="fill: #37414e;"/>
      <path d="M115.39,56.14l13.93,22.48,22.47-13.95s16.76-8.49,19.16-18.58c2.58-11.01-3.73-19.36-13.38-21.63-2.93-.69-5.98-.63-8.87.17-2.9.8-5.55,2.31-7.71,4.4-1-2.83-2.7-5.37-4.94-7.38-2.24-2.01-4.94-3.42-7.87-4.1-9.67-2.27-19.02,2.39-21.6,13.4-2.35,10.1,8.8,25.19,8.8,25.19Z" style="fill: #393bf4;"/>
      <path d="M151.93,40.8c3.65.71,4.29,5.77.86,7.37-2.06.97-3.51-.6-5.51.43-2,1.03-1.64,3.1-3.33,4.26-2.26,1.54-3.87-.34-6,.7-1.81.89-1.65,2.65-2.89,3.87-2.23,2.21-6.14.85-6.43-2.29-.15-1.59.72-2.59.02-4.27-1.05-2.51-4.12-1.76-4.75-4.78-.92-4.4,4.81-6.73,7.01-3.01,1.29,2.18-.36,3.69.43,5.71.86,2.17,3.51,2.95,5.41,1.63,1.91-1.33,1.34-3.82,4.06-4.54,1.73-.46,2.87.64,4.64-.08,2.2-.9,1.83-2.86,3.37-4.19.79-.68,2.08-1,3.09-.81h0Z" style="fill: #f5f7fa;"/>
    </g>
  </g>
</svg>