<?xml version="1.0" encoding="UTF-8"?>
<svg id="Layer_1" data-name="Layer 1" xmlns="http://www.w3.org/2000/svg" xmlns:xlink="http://www.w3.org/1999/xlink" viewBox="0 0 16 16">
  <defs>
    <clipPath id="clippath">
      <rect width="16" height="16" style="fill: none;"/>
    </clipPath>
  </defs>
  <g style="clip-path: url(#clippath);">
    <g>
      <path d="M1.17,4.25L14.86,1.33" style="fill: none; stroke: #d93025; stroke-linecap: round; stroke-linejoin: round;"/>
      <path d="M9.07.52l-2.93.62c-.13.03-.25.08-.36.15-.11.07-.2.17-.27.28-.07.11-.12.23-.14.36-.02.13-.02.26,0,.39l.21.98,4.89-1.04-.21-.98c-.03-.13-.08-.25-.15-.36-.07-.11-.17-.2-.28-.27-.11-.07-.23-.12-.36-.15-.13-.02-.26-.02-.39,0Z" style="fill: none; stroke: #d93025; stroke-linecap: round; stroke-linejoin: round;"/>
      <path d="M7.17,12v-5" style="fill: none; stroke: #d93025; stroke-linecap: round; stroke-linejoin: round;"/>
      <path d="M10.17,12v-5" style="fill: none; stroke: #d93025; stroke-linecap: round; stroke-linejoin: round;"/>
      <path d="M12.42,4h1.75l-.92,10.58c-.02.25-.14.48-.32.65-.19.17-.43.26-.68.26h-7.16c-.25,0-.49-.09-.68-.26-.18-.17-.3-.4-.32-.65l-.69-8.33" style="fill: none; stroke: #d93025; stroke-linecap: round; stroke-linejoin: round;"/>
    </g>
  </g>
</svg>