<?xml version="1.0" encoding="UTF-8"?>
<svg id="Layer_1" data-name="Layer 1" xmlns="http://www.w3.org/2000/svg" xmlns:xlink="http://www.w3.org/1999/xlink" viewBox="0 0 24 24">
  <defs>
    <clipPath id="clippath">
      <rect width="24" height="24" style="fill: none;"/>
    </clipPath>
  </defs>
  <g style="clip-path: url(#clippath);">
    <g>
      <path d="M.75,12h15.75" style="fill: none; stroke: #f5f7fa; stroke-linecap: round; stroke-linejoin: round; stroke-width: 1.5px;"/>
      <path d="M12.75,15.75l3.75-3.75-3.75-3.75" style="fill: none; stroke: #f5f7fa; stroke-linecap: round; stroke-linejoin: round; stroke-width: 1.5px;"/>
      <path d="M8.25,16.5v4.5c-.02.38.12.75.37,1.03.26.28.61.45.99.47h12.27c.38-.02.74-.19.99-.47.26-.28.39-.65.37-1.03V3c.02-.38-.12-.75-.37-1.03-.26-.28-.61-.45-.99-.47h-12.27c-.38.02-.74.19-.99.47-.26.28-.39.65-.37,1.03v4.5" style="fill: none; stroke: #f5f7fa; stroke-linecap: round; stroke-linejoin: round; stroke-width: 1.5px;"/>
    </g>
  </g>
</svg>