<?xml version="1.0" encoding="UTF-8"?>
<svg id="Layer_1" data-name="Layer 1" xmlns="http://www.w3.org/2000/svg" xmlns:xlink="http://www.w3.org/1999/xlink" viewBox="0 0 24 24">
  <defs>
    <clipPath id="clippath">
      <rect width="24" height="24" style="fill: none;"/>
    </clipPath>
  </defs>
  <g style="clip-path: url(#clippath);">
    <path d="M19.31,20.22c-.85-1.13-1.96-2.05-3.23-2.68-1.27-.63-2.67-.96-4.08-.96-1.42,0-2.81.33-4.08.96-1.27.63-2.37,1.55-3.23,2.68M19.31,20.22c1.67-1.48,2.84-3.44,3.37-5.6.53-2.17.39-4.44-.4-6.53-.79-2.08-2.2-3.88-4.04-5.15-1.84-1.27-4.01-1.94-6.24-1.94s-4.41.68-6.24,1.94c-1.84,1.27-3.24,3.06-4.04,5.15-.79,2.08-.93,4.36-.4,6.53.53,2.17,1.71,4.12,3.37,5.6M19.31,20.22c-2.01,1.79-4.62,2.78-7.31,2.78-2.7,0-5.3-.99-7.31-2.78M15.67,9.25c0,.97-.39,1.91-1.07,2.59-.69.69-1.62,1.07-2.59,1.07s-1.91-.39-2.59-1.07c-.69-.69-1.07-1.62-1.07-2.59s.39-1.91,1.07-2.59c.69-.69,1.62-1.07,2.59-1.07s1.91.39,2.59,1.07c.69.69,1.07,1.62,1.07,2.59Z" style="fill: none; stroke: #051122; stroke-linecap: round; stroke-linejoin: round; stroke-width: 1.5px;"/>
  </g>
</svg>