<?xml version="1.0" encoding="UTF-8"?>
<svg id="Layer_1" data-name="Layer 1" xmlns="http://www.w3.org/2000/svg" viewBox="0 0 125 35.61">
  <g>
    <polygon points="65.92 6.32 60.67 6.32 48.33 19.16 48.33 6.32 43.68 6.32 43.68 31.35 48.33 31.35 48.33 24.9 52.3 20.87 61.13 31.35 66.6 31.35 55.4 17.5 65.92 6.32" style="fill: #393bf4;"/>
    <path d="M82.36,13.27c-1.54-.85-3.3-1.27-5.27-1.27s-3.7.42-5.22,1.27c-1.53.85-2.73,2-3.61,3.45-.88,1.45-1.32,3.15-1.32,5.08s.44,3.56,1.32,5.04c.88,1.48,2.09,2.64,3.63,3.49,1.54.85,3.27,1.27,5.2,1.27s3.71-.42,5.26-1.27c1.55-.85,2.76-2,3.63-3.47.87-1.47,1.31-3.15,1.31-5.06s-.44-3.62-1.31-5.08c-.87-1.45-2.07-2.6-3.61-3.45ZM82.03,24.97c-.49.92-1.16,1.62-2.02,2.11-.86.49-1.84.73-2.93.73s-2-.24-2.86-.73c-.86-.49-1.54-1.19-2.04-2.11-.5-.92-.75-1.97-.75-3.16s.25-2.27.75-3.16c.5-.89,1.18-1.59,2.04-2.07.86-.49,1.82-.73,2.9-.73s2.04.24,2.9.73c.86.49,1.53,1.18,2.02,2.07.49.89.73,1.95.73,3.16s-.24,2.25-.73,3.16Z" style="fill: #393bf4;"/>
    <path d="M95.85,15.03v-2.77h-4.26v19.1h4.43v-9.23c0-2,.5-3.49,1.5-4.47,1-.98,2.36-1.47,4.08-1.47.14,0,.3,0,.46.02.17.01.33.03.5.05v-4.26c-1.79,0-3.3.34-4.54,1.02-.92.5-1.64,1.17-2.18,2Z" style="fill: #393bf4;"/>
    <path d="M123.69,16.72c-.87-1.45-2.07-2.6-3.61-3.45-1.54-.85-3.3-1.27-5.27-1.27s-3.7.42-5.22,1.27c-1.53.85-2.73,2-3.61,3.45-.88,1.45-1.32,3.15-1.32,5.08s.44,3.56,1.32,5.04c.88,1.48,2.09,2.64,3.63,3.49,1.54.85,3.27,1.27,5.2,1.27s3.71-.42,5.26-1.27c1.55-.85,2.76-2,3.63-3.47.87-1.47,1.31-3.15,1.31-5.06s-.44-3.62-1.31-5.08ZM119.76,24.97c-.49.92-1.16,1.62-2.02,2.11-.86.49-1.84.73-2.93.73s-2-.24-2.86-.73c-.86-.49-1.54-1.19-2.04-2.11-.5-.92-.75-1.97-.75-3.16s.25-2.27.75-3.16c.5-.89,1.18-1.59,2.04-2.07.86-.49,1.82-.73,2.9-.73s2.04.24,2.9.73c.86.49,1.53,1.18,2.02,2.07.49.89.73,1.95.73,3.16s-.24,2.25-.73,3.16Z" style="fill: #393bf4;"/>
  </g>
  <path d="M10.07.06c.29-.04.59-.03.89-.03.48,0,.97,0,1.45,0,.96,0,1.93-.02,2.89-.02s1.84,0,2.76,0c.06,0,.11,0,.17,0,1.08.01,2.05.71,2.63,1.61,1.08,1.7.06,3.63,2.25,4.9,2.02,1.17,6.99.23,9.5.57,1.86.25,2.88,1.94,2.99,3.69.3,4.56-.23,9.44,0,14.03-.09,1.22-.7,2.4-1.76,3.04-1.47.87-3.02.19-4.36,1.57s-.62,2.79-1.49,4.25c-.53.9-1.34,1.44-2.35,1.7-4.75-.03-9.95.44-14.67.12-1.45-.1-2.71-.62-3.42-1.95-.65-1.24-.17-2.54-1.11-3.79-1.37-1.81-2.95-.96-4.56-1.84-1.06-.58-1.71-1.73-1.79-2.92-.33-4.76.26-9.89,0-14.69.12-1.2.84-2.33,1.92-2.88,1.3-.66,2.55-.12,3.83-1.16,1.8-1.47.85-3.11,1.94-4.74.43-.65,1.09-1.11,1.82-1.36.15-.05.3-.08.45-.1ZM10.06,7.28c-1.35.31-2.67,1.44-2.7,2.86-.05,2.5,0,5.37,0,7.99.08.84.62,1.79,1.29,2.29,1.64,1.23,3.56.2,5,2.15,1,1.35.48,2.66,1.22,3.95.36.63,1.05,1.22,1.74,1.46,1.33.47,6.41.37,8.02.27,2.16-.14,3.56-1.3,3.72-3.53.14-1.9.15-5.17,0-7.06-.11-1.32-.78-2.52-2.02-3.06-1.38-.6-2.68-.07-3.96-1.31-1.45-1.42-.75-2.76-1.5-4.24-.48-.95-1.57-1.74-2.64-1.79-2.58-.11-5.52-.07-8.17.03Z" style="fill: #393bf4;"/>
</svg>