<?xml version="1.0" encoding="UTF-8"?>
<svg id="Layer_1" data-name="Layer 1" xmlns="http://www.w3.org/2000/svg" viewBox="0 0 63 21">
  <path d="M3.43,3.87h-.14v13.53l3.86,1.92v.72H0v-.72h2.29V2.58L.14,0h6.01l10.44,12.45h.14V2.29l-3.58-1.58v-.72h6.87v.72h-2.29v19.6h-.57L3.43,3.87Z" style="fill: #393bf4;"/>
  <path d="M26.61,19.32h2.58V.86h-3.15l-3,6.01h-.72V0h18.45v6.87h-.72l-3-6.01h-3.15v18.45h2.58v.72h-9.87v-.72h0Z" style="fill: #393bf4;"/>
  <path d="M43.21,19.32h2.29V.72h-2.29v-.72h9.15c6.15,0,8.44,2,8.44,4.86,0,4-5.01,4.58-5.01,4.58v.28s6.3.57,6.3,4.86c0,3-2.43,5.44-9.44,5.44h-9.44v-.72h0ZM51.79,9.16c2.72,0,4-1.37,4-4.15s-1.43-4.15-4-4.15h-1.58v8.3h1.58ZM52.07,19.17c3.44,0,5.01-1.58,5.01-4.58s-1.58-4.58-5.01-4.58h-1.86v9.16h1.86Z" style="fill: #393bf4;"/>
</svg>