<?xml version="1.0" encoding="UTF-8"?>
<svg id="Layer_1" data-name="Layer 1" xmlns="http://www.w3.org/2000/svg" viewBox="0 0 80 26">
  <path d="M1.88,1.6c5.36,0,8.15,1.91,8.15,5.62,0,3.48-2.45,5.36-7.19,5.59v7.36H0V1.6h1.88ZM6.98,7.22c0-2.74-1.31-3.96-4.13-4.22v8.41c2.82-.26,4.13-1.45,4.13-4.19Z" style="fill: #393bf4;"/>
  <path d="M17.93,18.48c-.71,1.42-1.63,1.97-3.02,1.97-1.97,0-3.28-1.42-3.28-3.59,0-3.14,2.31-5.19,6.02-5.47-.14-3.02-1.05-4.05-3.34-4.05-.57,0-1.14.09-1.71.23v-1.34c.68-.2,1.31-.26,2.11-.26,4.05,0,5.76,1.82,5.76,6.19v8.01h-2.54v-1.68ZM15.83,19.05c.8,0,1.37-.65,1.85-2.11v-4.33c-2.05.31-3.08,1.71-3.08,4.22,0,1.48.4,2.22,1.23,2.22h0Z" style="fill: #393bf4;"/>
  <path d="M26.09,18.76l-3.96-12.52h2.94l2.48,7.96,2.51-7.96h1.68l-6.05,19.22h-1.74l2.14-6.7h0Z" style="fill: #393bf4;"/>
  <path d="M37.98,15.29c0-1.2-.46-2.03-2-3.39-1.88-1.68-2.42-2.8-2.42-4.62,0-3.71,2.65-5.62,7.81-5.76v1.34c-3.25.14-5.1,1.23-5.1,3.71,0,1.2.43,2.03,1.97,3.39,1.88,1.71,2.43,2.8,2.43,4.62,0,3.71-2.62,5.62-7.78,5.76v-1.34c3.22-.14,5.1-1.23,5.1-3.71h0Z" style="fill: #393bf4;"/>
  <path d="M42.48,6.25h2.91l2.14,7.5,2.97-7.84,2.96,7.9,2.17-7.56h1.68l-4.13,14.43-3.28-8.7-3.28,8.7-4.13-14.43h0Z" style="fill: #393bf4;"/>
  <path d="M60.79.52c.97,0,1.66.68,1.66,1.66s-.68,1.66-1.66,1.66-1.66-.68-1.66-1.66.68-1.66,1.66-1.66ZM59.39,6.25h2.8v13.91h-2.8V6.25Z" style="fill: #393bf4;"/>
  <path d="M71.79,0v1.28c-2.05.17-2.57.86-2.57,4.13v.83h2.57v1.28h-2.57v12.63h-2.8V7.53h-2.25v-1.28h2.25v-1.05c0-3.42,1.68-5.1,5.36-5.19h0Z" style="fill: #393bf4;"/>
  <path d="M73.7,15.71V7.53h-2.25v-1.28h2.25v-2.43l2.8-1.85v4.27h2.57v1.28h-2.57v7.98c0,2.77.46,3.39,2.57,3.56v1.28c-3.68-.09-5.36-1.51-5.36-4.65h0Z" style="fill: #393bf4;"/>
</svg>